<?xml version="1.0" encoding="UTF-8"?>
<svg width="752pt" height="752pt" version="1.1" viewBox="0 0 752 752" xmlns="http://www.w3.org/2000/svg">
 <path d="m512.55 466.61c-8.4531 0-16.121 3.2148-22.066 8.3594-0.4375-0.44922-23.438-13.699-23.438-13.699l-0.003906-31.879c15.211-3.3828 26.633-16.934 26.633-33.148 0-18.738-15.258-34-33.996-34-8.4688 0-16.117 3.2266-22.086 8.3672-0.42969-0.45703-83.547-48.57-83.547-48.57l0.003907-32.02c13.613-3.0938 23.793-15.219 23.793-29.781 0-16.895-13.703-30.594-30.594-30.594-16.91 0-30.598 13.699-30.598 30.594 0 14.559 10.176 26.684 23.797 29.781v31.902s-83.273 48.207-83.684 48.641c-5.9414-5.0312-13.504-8.1836-21.859-8.1836-18.75 0-33.996 15.25-33.996 33.996s15.246 33.996 33.996 33.996c18.734 0 33.992-15.25 33.992-33.996 0-5.543-1.4609-10.711-3.8203-15.332l75.375-43.434s0.10938 44.301 0.13281 44.523c-0.23438 0.050782-28.68 0.20703-28.68 0.20703v69.684h69.691l0.003907-69.684s-27.453-0.16016-27.68-0.20703c0.015625-0.22266 0.13281-44.402 0.13281-44.402l75.336 43.402c-2.3008 4.582-3.7031 9.6562-3.7031 15.109 0 16.613 11.988 30.422 27.75 33.367v31.539s-21.879 12.961-22.289 13.395c-5.9375-5.0312-13.504-8.1836-21.859-8.1836-18.754 0-33.992 15.246-33.992 33.996 0 18.746 15.238 33.996 33.992 33.996 18.734 0 33.996-15.25 33.996-33.996 0-5.543-1.4609-10.707-3.8203-15.332l21.039-12.465 21.766 12.941c-2.3008 4.5703-3.7109 9.6562-3.7109 15.105 0 18.746 15.25 34 34 34 18.734 0 33.992-15.25 33.992-34-0.007813-18.746-15.266-33.996-34-33.996zm-277.64-43.035c-15.004 0-27.203-12.199-27.203-27.199s12.195-27.199 27.203-27.199c14.992 0 27.191 12.199 27.191 27.199 0.003906 14.996-12.199 27.199-27.191 27.199zm224.77-0.13281c-14.996 0-27.203-12.191-27.203-27.199 0-15 12.203-27.191 27.203-27.191 14.988 0 27.191 12.191 27.191 27.191 0 15.004-12.203 27.199-27.191 27.199z"/>
</svg>
